<svg xmlns="http://www.w3.org/2000/svg" viewBox="0 0 400 280" role="img" aria-label="Postal del Puente Nuevo al atardecer">
  <defs>
    <linearGradient id="cielo1" x1="0" y1="0" x2="0" y2="1">
      <stop offset="0%" stop-color="#FFB37A"/>
      <stop offset="100%" stop-color="#FF6B35"/>
    </linearGradient>
  </defs>
  <rect width="400" height="280" fill="url(#cielo1)"/>
  <path d="M 0 200 L 150 200 L 150 130 L 250 130 L 250 200 L 400 200 L 400 280 L 0 280 Z" fill="#3D2817"/>
  <path d="M 150 130 Q 200 80 250 130" fill="none" stroke="#3D2817" stroke-width="20"/>
  <rect x="160" y="100" width="20" height="100" fill="#5A3A20"/>
  <rect x="220" y="100" width="20" height="100" fill="#5A3A20"/>
  <rect x="100" y="180" width="200" height="40" fill="#F5EFE6"/>
  <rect x="120" y="190" width="10" height="15" fill="#A0451B"/>
  <rect x="140" y="190" width="10" height="15" fill="#A0451B"/>
  <rect x="160" y="190" width="10" height="15" fill="#A0451B"/>
  <rect x="180" y="190" width="10" height="15" fill="#A0451B"/>
  <rect x="200" y="190" width="10" height="15" fill="#A0451B"/>
  <rect x="220" y="190" width="10" height="15" fill="#A0451B"/>
  <rect x="240" y="190" width="10" height="15" fill="#A0451B"/>
  <rect x="260" y="190" width="10" height="15" fill="#A0451B"/>
  <circle cx="320" cy="60" r="25" fill="#FFE4A0"/>
  <text x="200" y="260" text-anchor="middle" fill="#FFFFFF" font-family="serif" font-size="22" font-weight="bold">RONDA</text>
</svg>
