<svg xmlns="http://www.w3.org/2000/svg" viewBox="0 0 600 400" role="img" aria-label="Ilustración del interior de los Baños Árabes de Ronda">
  <rect width="600" height="400" fill="#3D2817"/>
  <rect x="0" y="280" width="600" height="120" fill="#5A3A20"/>
  <g fill="#7A4A28">
    <path d="M 100 280 Q 100 180 150 180 Q 200 180 200 280 Z"/>
    <path d="M 250 280 Q 250 180 300 180 Q 350 180 350 280 Z"/>
    <path d="M 400 280 Q 400 180 450 180 Q 500 180 500 280 Z"/>
  </g>
  <g fill="#FFE4A0" opacity="0.8">
    <polygon points="150,100 165,130 195,130 170,150 180,180 150,165 120,180 130,150 105,130 135,130"/>
    <polygon points="300,80 312,110 342,110 318,130 328,160 300,145 272,160 282,130 258,110 288,110"/>
    <polygon points="450,100 462,130 492,130 468,150 478,180 450,165 422,180 432,150 408,130 438,130"/>
  </g>
  <ellipse cx="150" cy="100" rx="25" ry="8" fill="#FFE4A0" opacity="0.4"/>
  <ellipse cx="300" cy="80" rx="25" ry="8" fill="#FFE4A0" opacity="0.4"/>
  <ellipse cx="450" cy="100" rx="25" ry="8" fill="#FFE4A0" opacity="0.4"/>
  <rect x="50" y="290" width="500" height="20" fill="#3D2817" opacity="0.5"/>
  <g stroke="#3D2817" stroke-width="2" fill="none">
    <line x1="50" y1="300" x2="550" y2="300"/>
    <line x1="50" y1="320" x2="550" y2="320"/>
    <line x1="50" y1="340" x2="550" y2="340"/>
    <line x1="50" y1="360" x2="550" y2="360"/>
    <line x1="100" y1="290" x2="100" y2="380"/>
    <line x1="200" y1="290" x2="200" y2="380"/>
    <line x1="300" y1="290" x2="300" y2="380"/>
    <line x1="400" y1="290" x2="400" y2="380"/>
    <line x1="500" y1="290" x2="500" y2="380"/>
  </g>
</svg>
